<mxfile host="app.diagrams.net" modified="2022-11-25T02:16:48.377Z" agent="5.0 (X11; Linux x86_64) AppleWebKit/537.36 (KHTML, like Gecko) Chrome/106.0.0.0 Safari/537.36" etag="NY206jOca4jpJQiiJWfd" version="20.5.2" type="github">
  <diagram id="-g0EWCS_UyHXg1YItiPW" name="第 1 页">
    <mxGraphModel dx="1422" dy="748" grid="1" gridSize="10" guides="1" tooltips="1" connect="1" arrows="1" fold="1" page="1" pageScale="1" pageWidth="827" pageHeight="1169" math="0" shadow="0">
      <root>
        <mxCell id="0" />
        <mxCell id="1" parent="0" />
        <mxCell id="pl9L7AFgnWMo71hymMK7-4" style="edgeStyle=orthogonalEdgeStyle;rounded=0;orthogonalLoop=1;jettySize=auto;html=1;exitX=1;exitY=0.5;exitDx=0;exitDy=0;entryX=0;entryY=0.5;entryDx=0;entryDy=0;" parent="1" source="pl9L7AFgnWMo71hymMK7-1" target="pl9L7AFgnWMo71hymMK7-3" edge="1">
          <mxGeometry relative="1" as="geometry" />
        </mxCell>
        <mxCell id="pl9L7AFgnWMo71hymMK7-1" value="station A" style="ellipse;whiteSpace=wrap;html=1;aspect=fixed;" parent="1" vertex="1">
          <mxGeometry x="120" y="160" width="80" height="80" as="geometry" />
        </mxCell>
        <mxCell id="pl9L7AFgnWMo71hymMK7-2" value="TA01" style="rounded=0;whiteSpace=wrap;html=1;fillColor=#f8cecc;strokeColor=#b85450;" parent="1" vertex="1">
          <mxGeometry x="160" y="150" width="40" height="20" as="geometry" />
        </mxCell>
        <mxCell id="pl9L7AFgnWMo71hymMK7-11" style="edgeStyle=orthogonalEdgeStyle;rounded=0;orthogonalLoop=1;jettySize=auto;html=1;exitX=1;exitY=0.5;exitDx=0;exitDy=0;startArrow=none;" parent="1" source="pl9L7AFgnWMo71hymMK7-14" target="pl9L7AFgnWMo71hymMK7-9" edge="1">
          <mxGeometry relative="1" as="geometry" />
        </mxCell>
        <mxCell id="pl9L7AFgnWMo71hymMK7-3" value="Server" style="ellipse;whiteSpace=wrap;html=1;aspect=fixed;" parent="1" vertex="1">
          <mxGeometry x="450" y="160" width="80" height="80" as="geometry" />
        </mxCell>
        <mxCell id="pl9L7AFgnWMo71hymMK7-5" value="C01" style="rounded=0;whiteSpace=wrap;html=1;fillColor=#d5e8d4;strokeColor=#82b366;" parent="1" vertex="1">
          <mxGeometry x="300" y="190" width="50" height="20" as="geometry" />
        </mxCell>
        <mxCell id="pl9L7AFgnWMo71hymMK7-7" value="" style="endArrow=none;html=1;rounded=0;" parent="1" edge="1">
          <mxGeometry width="50" height="50" relative="1" as="geometry">
            <mxPoint x="640" y="184.5" as="sourcePoint" />
            <mxPoint x="740" y="184.5" as="targetPoint" />
          </mxGeometry>
        </mxCell>
        <mxCell id="pl9L7AFgnWMo71hymMK7-8" value="" style="endArrow=none;html=1;rounded=0;" parent="1" edge="1">
          <mxGeometry width="50" height="50" relative="1" as="geometry">
            <mxPoint x="640" y="214.5" as="sourcePoint" />
            <mxPoint x="740" y="214.5" as="targetPoint" />
          </mxGeometry>
        </mxCell>
        <mxCell id="pl9L7AFgnWMo71hymMK7-9" value="数据库敏感数据" style="text;html=1;align=center;verticalAlign=middle;resizable=0;points=[];autosize=1;strokeColor=none;fillColor=none;" parent="1" vertex="1">
          <mxGeometry x="630" y="184.5" width="110" height="30" as="geometry" />
        </mxCell>
        <mxCell id="pl9L7AFgnWMo71hymMK7-14" value="C02" style="rounded=0;whiteSpace=wrap;html=1;fillColor=#d5e8d4;strokeColor=#82b366;" parent="1" vertex="1">
          <mxGeometry x="550" y="189.5" width="50" height="20" as="geometry" />
        </mxCell>
        <mxCell id="pl9L7AFgnWMo71hymMK7-15" value="" style="edgeStyle=orthogonalEdgeStyle;rounded=0;orthogonalLoop=1;jettySize=auto;html=1;exitX=1;exitY=0.5;exitDx=0;exitDy=0;endArrow=none;" parent="1" source="pl9L7AFgnWMo71hymMK7-3" target="pl9L7AFgnWMo71hymMK7-14" edge="1">
          <mxGeometry relative="1" as="geometry">
            <mxPoint x="530" y="200" as="sourcePoint" />
            <mxPoint x="630" y="199.5" as="targetPoint" />
          </mxGeometry>
        </mxCell>
        <mxCell id="pl9L7AFgnWMo71hymMK7-16" value="A01" style="rounded=0;whiteSpace=wrap;html=1;fillColor=#fff2cc;strokeColor=#d6b656;" parent="1" vertex="1">
          <mxGeometry x="670" y="209.5" width="40" height="20" as="geometry" />
        </mxCell>
        <mxCell id="pl9L7AFgnWMo71hymMK7-21" style="edgeStyle=orthogonalEdgeStyle;rounded=0;orthogonalLoop=1;jettySize=auto;html=1;exitX=1;exitY=0.5;exitDx=0;exitDy=0;entryX=0;entryY=0.5;entryDx=0;entryDy=0;startArrow=none;" parent="1" source="pl9L7AFgnWMo71hymMK7-22" target="pl9L7AFgnWMo71hymMK7-20" edge="1">
          <mxGeometry relative="1" as="geometry" />
        </mxCell>
        <mxCell id="pl9L7AFgnWMo71hymMK7-18" value="server" style="ellipse;whiteSpace=wrap;html=1;aspect=fixed;" parent="1" vertex="1">
          <mxGeometry x="120" y="360" width="80" height="80" as="geometry" />
        </mxCell>
        <mxCell id="pl9L7AFgnWMo71hymMK7-19" value="TA02" style="rounded=0;whiteSpace=wrap;html=1;fillColor=#f8cecc;strokeColor=#b85450;" parent="1" vertex="1">
          <mxGeometry x="160" y="360" width="40" height="20" as="geometry" />
        </mxCell>
        <mxCell id="pl9L7AFgnWMo71hymMK7-24" style="edgeStyle=orthogonalEdgeStyle;rounded=0;orthogonalLoop=1;jettySize=auto;html=1;exitX=1;exitY=0.5;exitDx=0;exitDy=0;entryX=0.091;entryY=0.85;entryDx=0;entryDy=0;entryPerimeter=0;startArrow=none;" parent="1" source="pl9L7AFgnWMo71hymMK7-68" target="pl9L7AFgnWMo71hymMK7-9" edge="1">
          <mxGeometry relative="1" as="geometry" />
        </mxCell>
        <mxCell id="pl9L7AFgnWMo71hymMK7-71" style="edgeStyle=entityRelationEdgeStyle;rounded=0;orthogonalLoop=1;jettySize=auto;html=1;exitX=1;exitY=0.5;exitDx=0;exitDy=0;endArrow=none;endFill=0;" parent="1" source="pl9L7AFgnWMo71hymMK7-20" edge="1">
          <mxGeometry relative="1" as="geometry">
            <mxPoint x="640" y="400" as="targetPoint" />
          </mxGeometry>
        </mxCell>
        <mxCell id="pl9L7AFgnWMo71hymMK7-20" value="Web Interface" style="ellipse;whiteSpace=wrap;html=1;aspect=fixed;" parent="1" vertex="1">
          <mxGeometry x="450" y="360" width="80" height="80" as="geometry" />
        </mxCell>
        <mxCell id="pl9L7AFgnWMo71hymMK7-22" value="C03" style="rounded=0;whiteSpace=wrap;html=1;fillColor=#d5e8d4;strokeColor=#82b366;" parent="1" vertex="1">
          <mxGeometry x="300" y="390" width="50" height="20" as="geometry" />
        </mxCell>
        <mxCell id="pl9L7AFgnWMo71hymMK7-23" value="" style="edgeStyle=orthogonalEdgeStyle;rounded=0;orthogonalLoop=1;jettySize=auto;html=1;exitX=1;exitY=0.5;exitDx=0;exitDy=0;entryX=0;entryY=0.5;entryDx=0;entryDy=0;endArrow=none;" parent="1" source="pl9L7AFgnWMo71hymMK7-18" target="pl9L7AFgnWMo71hymMK7-22" edge="1">
          <mxGeometry relative="1" as="geometry">
            <mxPoint x="200" y="400" as="sourcePoint" />
            <mxPoint x="450" y="400" as="targetPoint" />
          </mxGeometry>
        </mxCell>
        <mxCell id="pl9L7AFgnWMo71hymMK7-41" value="Table" style="rounded=0;whiteSpace=wrap;html=1;fillColor=#f8cecc;strokeColor=#b85450;" parent="1" vertex="1">
          <mxGeometry x="110" y="480" width="190" height="30" as="geometry" />
        </mxCell>
        <mxCell id="pl9L7AFgnWMo71hymMK7-43" value="ID" style="rounded=0;whiteSpace=wrap;html=1;fillColor=#f8cecc;strokeColor=#b85450;" parent="1" vertex="1">
          <mxGeometry x="110" y="510" width="40" height="20" as="geometry" />
        </mxCell>
        <mxCell id="pl9L7AFgnWMo71hymMK7-44" value="Description" style="rounded=0;whiteSpace=wrap;html=1;fillColor=#f8cecc;strokeColor=#b85450;" parent="1" vertex="1">
          <mxGeometry x="150" y="510" width="150" height="20" as="geometry" />
        </mxCell>
        <mxCell id="pl9L7AFgnWMo71hymMK7-45" value="TA01" style="rounded=0;whiteSpace=wrap;html=1;" parent="1" vertex="1">
          <mxGeometry x="110" y="530" width="40" height="20" as="geometry" />
        </mxCell>
        <mxCell id="pl9L7AFgnWMo71hymMK7-46" value="恶意用户" style="rounded=0;whiteSpace=wrap;html=1;" parent="1" vertex="1">
          <mxGeometry x="150" y="530" width="150" height="20" as="geometry" />
        </mxCell>
        <mxCell id="pl9L7AFgnWMo71hymMK7-47" value="恶意服务" style="rounded=0;whiteSpace=wrap;html=1;" parent="1" vertex="1">
          <mxGeometry x="150" y="550" width="150" height="20" as="geometry" />
        </mxCell>
        <mxCell id="pl9L7AFgnWMo71hymMK7-48" value="TA02" style="rounded=0;whiteSpace=wrap;html=1;" parent="1" vertex="1">
          <mxGeometry x="110" y="550" width="40" height="20" as="geometry" />
        </mxCell>
        <mxCell id="pl9L7AFgnWMo71hymMK7-49" value="Table" style="rounded=0;whiteSpace=wrap;html=1;fillColor=#d5e8d4;strokeColor=#82b366;" parent="1" vertex="1">
          <mxGeometry x="350" y="480" width="190" height="30" as="geometry" />
        </mxCell>
        <mxCell id="pl9L7AFgnWMo71hymMK7-50" value="ID" style="rounded=0;whiteSpace=wrap;html=1;fillColor=#d5e8d4;strokeColor=#82b366;" parent="1" vertex="1">
          <mxGeometry x="350" y="510" width="40" height="20" as="geometry" />
        </mxCell>
        <mxCell id="pl9L7AFgnWMo71hymMK7-51" value="Description" style="rounded=0;whiteSpace=wrap;html=1;fillColor=#d5e8d4;strokeColor=#82b366;" parent="1" vertex="1">
          <mxGeometry x="390" y="510" width="150" height="20" as="geometry" />
        </mxCell>
        <mxCell id="pl9L7AFgnWMo71hymMK7-52" value="C01" style="rounded=0;whiteSpace=wrap;html=1;" parent="1" vertex="1">
          <mxGeometry x="350" y="530" width="40" height="20" as="geometry" />
        </mxCell>
        <mxCell id="pl9L7AFgnWMo71hymMK7-53" value="用户认证" style="rounded=0;whiteSpace=wrap;html=1;" parent="1" vertex="1">
          <mxGeometry x="390" y="530" width="150" height="20" as="geometry" />
        </mxCell>
        <mxCell id="pl9L7AFgnWMo71hymMK7-54" value="数据库连接认证" style="rounded=0;whiteSpace=wrap;html=1;" parent="1" vertex="1">
          <mxGeometry x="390" y="550" width="150" height="20" as="geometry" />
        </mxCell>
        <mxCell id="pl9L7AFgnWMo71hymMK7-55" value="C02" style="rounded=0;whiteSpace=wrap;html=1;" parent="1" vertex="1">
          <mxGeometry x="350" y="550" width="40" height="20" as="geometry" />
        </mxCell>
        <mxCell id="pl9L7AFgnWMo71hymMK7-58" value="C03" style="rounded=0;whiteSpace=wrap;html=1;" parent="1" vertex="1">
          <mxGeometry x="350" y="570" width="40" height="20" as="geometry" />
        </mxCell>
        <mxCell id="pl9L7AFgnWMo71hymMK7-59" value="登录态校验" style="rounded=0;whiteSpace=wrap;html=1;" parent="1" vertex="1">
          <mxGeometry x="390" y="570" width="150" height="20" as="geometry" />
        </mxCell>
        <mxCell id="pl9L7AFgnWMo71hymMK7-60" value="Table" style="rounded=0;whiteSpace=wrap;html=1;fillColor=#fff2cc;strokeColor=#d6b656;" parent="1" vertex="1">
          <mxGeometry x="595" y="480" width="190" height="30" as="geometry" />
        </mxCell>
        <mxCell id="pl9L7AFgnWMo71hymMK7-61" value="ID" style="rounded=0;whiteSpace=wrap;html=1;fillColor=#fff2cc;strokeColor=#d6b656;" parent="1" vertex="1">
          <mxGeometry x="595" y="510" width="40" height="20" as="geometry" />
        </mxCell>
        <mxCell id="pl9L7AFgnWMo71hymMK7-62" value="Description" style="rounded=0;whiteSpace=wrap;html=1;fillColor=#fff2cc;strokeColor=#d6b656;" parent="1" vertex="1">
          <mxGeometry x="635" y="510" width="150" height="20" as="geometry" />
        </mxCell>
        <mxCell id="pl9L7AFgnWMo71hymMK7-63" value="A01" style="rounded=0;whiteSpace=wrap;html=1;" parent="1" vertex="1">
          <mxGeometry x="595" y="530" width="40" height="20" as="geometry" />
        </mxCell>
        <mxCell id="pl9L7AFgnWMo71hymMK7-64" value="数据库敏感数据" style="rounded=0;whiteSpace=wrap;html=1;" parent="1" vertex="1">
          <mxGeometry x="635" y="530" width="150" height="20" as="geometry" />
        </mxCell>
        <mxCell id="pl9L7AFgnWMo71hymMK7-68" value="C04" style="rounded=0;whiteSpace=wrap;html=1;fillColor=#d5e8d4;strokeColor=#82b366;" parent="1" vertex="1">
          <mxGeometry x="560" y="390" width="50" height="20" as="geometry" />
        </mxCell>
        <mxCell id="pl9L7AFgnWMo71hymMK7-74" value="C04" style="rounded=0;whiteSpace=wrap;html=1;" parent="1" vertex="1">
          <mxGeometry x="350" y="590" width="40" height="20" as="geometry" />
        </mxCell>
        <mxCell id="pl9L7AFgnWMo71hymMK7-75" value="防SQL注入处理" style="rounded=0;whiteSpace=wrap;html=1;" parent="1" vertex="1">
          <mxGeometry x="390" y="590" width="150" height="20" as="geometry" />
        </mxCell>
        <mxCell id="rK4-QEF2hgpdYLERDGGH-3" value="" style="curved=1;endArrow=none;html=1;rounded=0;endFill=0;dashed=1;fillColor=#f8cecc;strokeColor=#b85450;" edge="1" parent="1">
          <mxGeometry width="50" height="50" relative="1" as="geometry">
            <mxPoint x="370" y="450" as="sourcePoint" />
            <mxPoint x="360" y="90" as="targetPoint" />
            <Array as="points">
              <mxPoint x="410" y="300" />
              <mxPoint x="430" y="140" />
              <mxPoint x="360" y="90" />
            </Array>
          </mxGeometry>
        </mxCell>
      </root>
    </mxGraphModel>
  </diagram>
</mxfile>
